{
  "asset": {
    "copyright": "",
    "generator": "SharpGLTF 1.0.0\u002B437a473880fb3de9acaa3ed9e6d9e8d3693db5fd",
    "version": "2.0"
  },
  "accessors": [
    {
      "name": "POSITION",
      "bufferView": 0,
      "componentType": 5126,
      "count": 22838,
      "max": [
        6150,
        4400,
        0
      ],
      "min": [
        -6150,
        -4400,
        -160
      ],
      "type": "VEC3"
    },
    {
      "bufferView": 1,
      "componentType": 5123,
      "count": 143820,
      "type": "SCALAR"
    },
    {
      "name": "POSITION",
      "bufferView": 0,
      "byteOffset": 274056,
      "componentType": 5126,
      "count": 12546,
      "max": [
        5956,
        4338,
        0.10000000149011612
      ],
      "min": [
        -5990,
        -4191,
        -160.10000610351563
      ],
      "type": "VEC3"
    },
    {
      "bufferView": 1,
      "byteOffset": 287640,
      "componentType": 5123,
      "count": 36462,
      "type": "SCALAR"
    },
    {
      "name": "POSITION",
      "bufferView": 0,
      "byteOffset": 424608,
      "componentType": 5126,
      "count": 12,
      "max": [
        -57,
        -11,
        0.20000000298023224
      ],
      "min": [
        -58,
        -22,
        -160.19999694824219
      ],
      "type": "VEC3"
    },
    {
      "bufferView": 1,
      "byteOffset": 360564,
      "componentType": 5123,
      "count": 12,
      "type": "SCALAR"
    }
  ],
  "bufferViews": [
    {
      "buffer": 0,
      "byteLength": 424752,
      "byteStride": 12,
      "target": 34962
    },
    {
      "buffer": 0,
      "byteLength": 360588,
      "byteOffset": 424752,
      "target": 34963
    }
  ],
  "buffers": [
    {
      "byteLength": 785340,
      "uri": "output.bin"
    }
  ],
  "materials": [
    {
      "name": "PCB_FR4",
      "doubleSided": true,
      "pbrMetallicRoughness": {
        "baseColorFactor": [
          0.647058845,
          0.647058845,
          0.380392164,
          1
        ]
      }
    },
    {
      "name": "PCB_HASL",
      "doubleSided": true,
      "pbrMetallicRoughness": {
        "baseColorFactor": [
          0.627451003,
          0.627451003,
          0.627451003,
          1
        ]
      }
    },
    {
      "name": "PCB_MaskGreen",
      "alphaMode": "BLEND",
      "doubleSided": true,
      "pbrMetallicRoughness": {
        "baseColorFactor": [
          0.0156862754,
          0.513725519,
          0.352941185,
          0.899999976
        ]
      }
    }
  ],
  "meshes": [
    {
      "name": "PCB_Mesh",
      "primitives": [
        {
          "attributes": {
            "POSITION": 0
          },
          "indices": 1,
          "material": 0
        },
        {
          "attributes": {
            "POSITION": 2
          },
          "indices": 3,
          "material": 1
        },
        {
          "attributes": {
            "POSITION": 4
          },
          "indices": 5,
          "material": 2
        }
      ]
    }
  ],
  "nodes": [
    {
      "mesh": 0
    }
  ],
  "scene": 0,
  "scenes": [
    {
      "nodes": [
        0
      ]
    }
  ]
}